STARTFONT 2.1
COMMENT
COMMENT Converted from OpenType font "emil.ttf" by "otf2bdf 3.0".
COMMENT
FONT -FreeType-PxArtEmilMG-Medium-R-Normal--16-160-72-72-P-68-ISO10646-1
SIZE 16 72 72
FONTBOUNDINGBOX 11 12 -2 -2
STARTPROPERTIES 19
FOUNDRY "FreeType"
FAMILY_NAME "PxArtEmilMG"
WEIGHT_NAME "Medium"
SLANT "R"
SETWIDTH_NAME "Normal"
ADD_STYLE_NAME ""
PIXEL_SIZE 16
POINT_SIZE 160
RESOLUTION_X 72
RESOLUTION_Y 72
SPACING "P"
AVERAGE_WIDTH 68
CHARSET_REGISTRY "ISO10646"
CHARSET_ENCODING "1"
FONT_ASCENT 10
FONT_DESCENT 2
COPYRIGHT "EmilMG"
_OTF_FONTFILE "emil.ttf"
_OTF_PSNAME "PxArtEmilMG"
ENDPROPERTIES
CHARS 98
STARTCHAR 0020
ENCODING 32
SWIDTH 312 0
DWIDTH 5 0
BBX 0 0 0 0
BITMAP
ENDCHAR
STARTCHAR 0021
ENCODING 33
SWIDTH 125 0
DWIDTH 2 0
BBX 3 7 -2 0
BITMAP
E0
A0
A0
A0
E0
A0
E0
ENDCHAR
STARTCHAR 0022
ENCODING 34
SWIDTH 437 0
DWIDTH 7 0
BBX 8 6 -2 1
BITMAP
FF
99
DD
55
BB
EE
ENDCHAR
STARTCHAR 0023
ENCODING 35
SWIDTH 375 0
DWIDTH 6 0
BBX 7 7 -2 0
BITMAP
7C
D6
82
D6
82
D6
7C
ENDCHAR
STARTCHAR 0024
ENCODING 36
SWIDTH 375 0
DWIDTH 6 0
BBX 7 9 -2 -1
BITMAP
38
EE
AA
BE
AA
FA
AA
EE
38
ENDCHAR
STARTCHAR 0025
ENCODING 37
SWIDTH 375 0
DWIDTH 6 0
BBX 7 7 -2 0
BITMAP
EE
BA
F6
6C
DE
BA
EE
ENDCHAR
STARTCHAR 0027
ENCODING 39
SWIDTH 250 0
DWIDTH 4 0
BBX 4 6 -1 1
BITMAP
F0
90
D0
50
B0
E0
ENDCHAR
STARTCHAR 0028
ENCODING 40
SWIDTH 187 0
DWIDTH 3 0
BBX 4 9 -2 -1
BITMAP
70
D0
B0
A0
A0
A0
B0
D0
70
ENDCHAR
STARTCHAR 0029
ENCODING 41
SWIDTH 187 0
DWIDTH 3 0
BBX 4 9 -2 -1
BITMAP
E0
B0
D0
50
50
50
D0
B0
E0
ENDCHAR
STARTCHAR 002A
ENCODING 42
SWIDTH 437 0
DWIDTH 7 0
BBX 7 7 -1 1
BITMAP
38
EE
AA
C6
AA
EE
38
ENDCHAR
STARTCHAR 002B
ENCODING 43
SWIDTH 375 0
DWIDTH 6 0
BBX 7 7 -2 0
BITMAP
38
28
EE
82
EE
28
38
ENDCHAR
STARTCHAR 002C
ENCODING 44
SWIDTH 187 0
DWIDTH 3 0
BBX 3 4 -1 -1
BITMAP
E0
A0
A0
E0
ENDCHAR
STARTCHAR 002D
ENCODING 45
SWIDTH 312 0
DWIDTH 5 0
BBX 6 3 -2 2
BITMAP
FC
84
FC
ENDCHAR
STARTCHAR 002E
ENCODING 46
SWIDTH 187 0
DWIDTH 3 0
BBX 3 3 -1 0
BITMAP
E0
A0
E0
ENDCHAR
STARTCHAR 002F
ENCODING 47
SWIDTH 375 0
DWIDTH 6 0
BBX 7 7 -2 0
BITMAP
0E
1A
36
6C
D8
B0
E0
ENDCHAR
STARTCHAR 0030
ENCODING 48
SWIDTH 375 0
DWIDTH 6 0
BBX 7 7 -2 0
BITMAP
7C
C6
BA
AA
BA
C6
7C
ENDCHAR
STARTCHAR 0031
ENCODING 49
SWIDTH 250 0
DWIDTH 4 0
BBX 5 7 -2 0
BITMAP
F8
88
E8
28
28
28
38
ENDCHAR
STARTCHAR 0032
ENCODING 50
SWIDTH 375 0
DWIDTH 6 0
BBX 7 7 -2 0
BITMAP
FE
82
FA
82
BE
82
FE
ENDCHAR
STARTCHAR 0033
ENCODING 51
SWIDTH 375 0
DWIDTH 6 0
BBX 7 7 -2 0
BITMAP
FE
82
FA
22
FA
82
FE
ENDCHAR
STARTCHAR 0034
ENCODING 52
SWIDTH 375 0
DWIDTH 6 0
BBX 7 7 -2 0
BITMAP
EE
AA
BA
82
FA
0A
0E
ENDCHAR
STARTCHAR 0035
ENCODING 53
SWIDTH 375 0
DWIDTH 6 0
BBX 7 7 -2 0
BITMAP
FE
82
BE
86
FA
82
FE
ENDCHAR
STARTCHAR 0036
ENCODING 54
SWIDTH 375 0
DWIDTH 6 0
BBX 7 7 -2 0
BITMAP
FE
82
BE
82
BA
82
FE
ENDCHAR
STARTCHAR 0037
ENCODING 55
SWIDTH 375 0
DWIDTH 6 0
BBX 7 7 -2 0
BITMAP
FE
82
BA
EA
0A
0A
0E
ENDCHAR
STARTCHAR 0038
ENCODING 56
SWIDTH 375 0
DWIDTH 6 0
BBX 7 7 -2 0
BITMAP
FE
82
BA
82
BA
82
FE
ENDCHAR
STARTCHAR 0039
ENCODING 57
SWIDTH 375 0
DWIDTH 6 0
BBX 7 7 -2 0
BITMAP
FE
82
BA
82
FA
82
FE
ENDCHAR
STARTCHAR 003A
ENCODING 58
SWIDTH 187 0
DWIDTH 3 0
BBX 3 7 -1 0
BITMAP
E0
A0
E0
00
E0
A0
E0
ENDCHAR
STARTCHAR 003B
ENCODING 59
SWIDTH 187 0
DWIDTH 3 0
BBX 3 6 -1 -2
BITMAP
E0
A0
E0
A0
A0
E0
ENDCHAR
STARTCHAR 003C
ENCODING 60
SWIDTH 312 0
DWIDTH 5 0
BBX 5 7 -1 0
BITMAP
38
68
D8
B0
D8
68
38
ENDCHAR
STARTCHAR 003D
ENCODING 61
SWIDTH 375 0
DWIDTH 6 0
BBX 7 5 -2 1
BITMAP
FE
82
FE
82
FE
ENDCHAR
STARTCHAR 003E
ENCODING 62
SWIDTH 312 0
DWIDTH 5 0
BBX 5 7 -1 0
BITMAP
E0
B0
D8
68
D8
B0
E0
ENDCHAR
STARTCHAR 003F
ENCODING 63
SWIDTH 437 0
DWIDTH 7 0
BBX 7 7 -1 0
BITMAP
FE
82
FA
22
3E
28
38
ENDCHAR
STARTCHAR 0040
ENCODING 64
SWIDTH 625 0
DWIDTH 10 0
BBX 10 10 -1 -1
BITMAP
3F80
60C0
DF40
B140
AD40
AD40
B1C0
DF80
6080
3F80
ENDCHAR
STARTCHAR 0041
ENCODING 65
SWIDTH 375 0
DWIDTH 6 0
BBX 7 7 -2 0
BITMAP
FE
82
BA
82
BA
AA
EE
ENDCHAR
STARTCHAR 0042
ENCODING 66
SWIDTH 375 0
DWIDTH 6 0
BBX 7 7 -2 0
BITMAP
FE
82
BA
86
BA
82
FE
ENDCHAR
STARTCHAR 0043
ENCODING 67
SWIDTH 375 0
DWIDTH 6 0
BBX 7 7 -2 0
BITMAP
FE
82
BE
A0
BE
82
FE
ENDCHAR
STARTCHAR 0044
ENCODING 68
SWIDTH 375 0
DWIDTH 6 0
BBX 7 7 -2 0
BITMAP
FC
86
BA
AA
BA
86
FC
ENDCHAR
STARTCHAR 0045
ENCODING 69
SWIDTH 375 0
DWIDTH 6 0
BBX 7 7 -2 0
BITMAP
FE
82
BE
88
BE
82
FE
ENDCHAR
STARTCHAR 0046
ENCODING 70
SWIDTH 375 0
DWIDTH 6 0
BBX 7 7 -2 0
BITMAP
FE
82
BE
88
B8
A0
E0
ENDCHAR
STARTCHAR 0047
ENCODING 71
SWIDTH 375 0
DWIDTH 6 0
BBX 7 7 -2 0
BITMAP
FE
82
BE
A2
BA
82
FE
ENDCHAR
STARTCHAR 0048
ENCODING 72
SWIDTH 375 0
DWIDTH 6 0
BBX 7 7 -2 0
BITMAP
EE
AA
BA
82
BA
AA
EE
ENDCHAR
STARTCHAR 0049
ENCODING 73
SWIDTH 375 0
DWIDTH 6 0
BBX 7 7 -2 0
BITMAP
FE
82
EE
28
EE
82
FE
ENDCHAR
STARTCHAR 004A
ENCODING 74
SWIDTH 375 0
DWIDTH 6 0
BBX 7 7 -2 0
BITMAP
0E
0A
0A
EA
BA
82
FE
ENDCHAR
STARTCHAR 004B
ENCODING 75
SWIDTH 375 0
DWIDTH 6 0
BBX 7 7 -2 0
BITMAP
EE
BA
B6
8C
B6
BA
EE
ENDCHAR
STARTCHAR 004C
ENCODING 76
SWIDTH 375 0
DWIDTH 6 0
BBX 7 7 -2 0
BITMAP
E0
A0
A0
A0
BE
82
FE
ENDCHAR
STARTCHAR 004D
ENCODING 77
SWIDTH 375 0
DWIDTH 6 0
BBX 7 7 -2 0
BITMAP
FE
82
AA
AA
AA
AA
FE
ENDCHAR
STARTCHAR 004E
ENCODING 78
SWIDTH 375 0
DWIDTH 6 0
BBX 7 7 -2 0
BITMAP
FE
82
BA
AA
AA
AA
EE
ENDCHAR
STARTCHAR 004F
ENCODING 79
SWIDTH 375 0
DWIDTH 6 0
BBX 7 7 -2 0
BITMAP
FE
82
BA
AA
BA
82
FE
ENDCHAR
STARTCHAR 0050
ENCODING 80
SWIDTH 375 0
DWIDTH 6 0
BBX 7 7 -2 0
BITMAP
FE
82
BA
82
BE
A0
E0
ENDCHAR
STARTCHAR 0051
ENCODING 81
SWIDTH 375 0
DWIDTH 6 0
BBX 7 8 -2 -1
BITMAP
FE
82
BA
BA
AA
82
EE
38
ENDCHAR
STARTCHAR 0052
ENCODING 82
SWIDTH 375 0
DWIDTH 6 0
BBX 7 7 -2 0
BITMAP
FE
82
BA
82
B6
BA
EE
ENDCHAR
STARTCHAR 0053
ENCODING 83
SWIDTH 375 0
DWIDTH 6 0
BBX 7 7 -2 0
BITMAP
FE
82
BE
82
FA
82
FE
ENDCHAR
STARTCHAR 0054
ENCODING 84
SWIDTH 375 0
DWIDTH 6 0
BBX 7 7 -2 0
BITMAP
FE
82
EE
28
28
28
38
ENDCHAR
STARTCHAR 0055
ENCODING 85
SWIDTH 375 0
DWIDTH 6 0
BBX 7 7 -2 0
BITMAP
EE
AA
AA
AA
BA
82
FE
ENDCHAR
STARTCHAR 0056
ENCODING 86
SWIDTH 375 0
DWIDTH 6 0
BBX 7 7 -2 0
BITMAP
EE
AA
AA
BA
D6
6C
38
ENDCHAR
STARTCHAR 0057
ENCODING 87
SWIDTH 375 0
DWIDTH 6 0
BBX 7 7 -2 0
BITMAP
FE
AA
AA
AA
AA
82
FE
ENDCHAR
STARTCHAR 0058
ENCODING 88
SWIDTH 375 0
DWIDTH 6 0
BBX 7 7 -2 0
BITMAP
EE
BA
D6
6C
D6
BA
EE
ENDCHAR
STARTCHAR 0059
ENCODING 89
SWIDTH 375 0
DWIDTH 6 0
BBX 7 7 -2 0
BITMAP
EE
BA
D6
6C
28
28
38
ENDCHAR
STARTCHAR 005A
ENCODING 90
SWIDTH 375 0
DWIDTH 6 0
BBX 7 7 -2 0
BITMAP
FE
82
FA
C6
BE
82
FE
ENDCHAR
STARTCHAR 005B
ENCODING 91
SWIDTH 187 0
DWIDTH 3 0
BBX 4 9 -2 -1
BITMAP
F0
90
B0
A0
A0
A0
B0
90
F0
ENDCHAR
STARTCHAR 005C
ENCODING 92
SWIDTH 375 0
DWIDTH 6 0
BBX 7 7 -2 0
BITMAP
E0
B0
D8
6C
36
1A
0E
ENDCHAR
STARTCHAR 005D
ENCODING 93
SWIDTH 187 0
DWIDTH 3 0
BBX 4 9 -2 -1
BITMAP
F0
90
D0
50
50
50
D0
90
F0
ENDCHAR
STARTCHAR 005E
ENCODING 94
SWIDTH 375 0
DWIDTH 6 0
BBX 7 5 -2 4
BITMAP
38
6C
D6
BA
EE
ENDCHAR
STARTCHAR 005F
ENCODING 95
SWIDTH 562 0
DWIDTH 9 0
BBX 9 3 -1 -1
BITMAP
FF80
8080
FF80
ENDCHAR
STARTCHAR 0060
ENCODING 96
SWIDTH 250 0
DWIDTH 4 0
BBX 4 4 -1 5
BITMAP
E0
B0
D0
70
ENDCHAR
STARTCHAR 0061
ENCODING 97
SWIDTH 375 0
DWIDTH 6 0
BBX 7 7 -2 0
BITMAP
FE
82
BA
82
BA
AA
EE
ENDCHAR
STARTCHAR 0062
ENCODING 98
SWIDTH 375 0
DWIDTH 6 0
BBX 7 7 -2 0
BITMAP
FE
82
BA
86
BA
82
FE
ENDCHAR
STARTCHAR 0063
ENCODING 99
SWIDTH 375 0
DWIDTH 6 0
BBX 7 7 -2 0
BITMAP
FE
82
BE
A0
BE
82
FE
ENDCHAR
STARTCHAR 0064
ENCODING 100
SWIDTH 375 0
DWIDTH 6 0
BBX 7 7 -2 0
BITMAP
FC
86
BA
AA
BA
86
FC
ENDCHAR
STARTCHAR 0065
ENCODING 101
SWIDTH 375 0
DWIDTH 6 0
BBX 7 7 -2 0
BITMAP
FE
82
BE
88
BE
82
FE
ENDCHAR
STARTCHAR 0066
ENCODING 102
SWIDTH 375 0
DWIDTH 6 0
BBX 7 7 -2 0
BITMAP
FE
82
BE
88
B8
A0
E0
ENDCHAR
STARTCHAR 0067
ENCODING 103
SWIDTH 375 0
DWIDTH 6 0
BBX 7 7 -2 0
BITMAP
FE
82
BE
A2
BA
82
FE
ENDCHAR
STARTCHAR 0068
ENCODING 104
SWIDTH 375 0
DWIDTH 6 0
BBX 7 7 -2 0
BITMAP
EE
AA
BA
82
BA
AA
EE
ENDCHAR
STARTCHAR 0069
ENCODING 105
SWIDTH 125 0
DWIDTH 2 0
BBX 3 7 -2 0
BITMAP
E0
A0
A0
A0
A0
A0
E0
ENDCHAR
STARTCHAR 006A
ENCODING 106
SWIDTH 375 0
DWIDTH 6 0
BBX 7 7 -2 0
BITMAP
0E
0A
0A
EA
BA
82
FE
ENDCHAR
STARTCHAR 006B
ENCODING 107
SWIDTH 375 0
DWIDTH 6 0
BBX 7 7 -2 0
BITMAP
EE
BA
B6
8C
B6
BA
EE
ENDCHAR
STARTCHAR 006C
ENCODING 108
SWIDTH 375 0
DWIDTH 6 0
BBX 7 7 -2 0
BITMAP
E0
A0
A0
A0
BE
82
FE
ENDCHAR
STARTCHAR 006D
ENCODING 109
SWIDTH 375 0
DWIDTH 6 0
BBX 7 7 -2 0
BITMAP
FE
82
AA
AA
AA
AA
FE
ENDCHAR
STARTCHAR 006E
ENCODING 110
SWIDTH 375 0
DWIDTH 6 0
BBX 7 7 -2 0
BITMAP
FE
82
BA
AA
AA
AA
EE
ENDCHAR
STARTCHAR 006F
ENCODING 111
SWIDTH 375 0
DWIDTH 6 0
BBX 7 7 -2 0
BITMAP
FE
82
BA
AA
BA
82
FE
ENDCHAR
STARTCHAR 0070
ENCODING 112
SWIDTH 375 0
DWIDTH 6 0
BBX 7 7 -2 0
BITMAP
FE
82
BA
82
BE
A0
E0
ENDCHAR
STARTCHAR 0071
ENCODING 113
SWIDTH 375 0
DWIDTH 6 0
BBX 7 8 -2 -1
BITMAP
FE
82
BA
BA
AA
82
EE
38
ENDCHAR
STARTCHAR 0072
ENCODING 114
SWIDTH 375 0
DWIDTH 6 0
BBX 7 7 -2 0
BITMAP
FE
82
BA
82
B6
BA
EE
ENDCHAR
STARTCHAR 0073
ENCODING 115
SWIDTH 375 0
DWIDTH 6 0
BBX 7 7 -2 0
BITMAP
FE
82
BE
82
FA
82
FE
ENDCHAR
STARTCHAR 0074
ENCODING 116
SWIDTH 375 0
DWIDTH 6 0
BBX 7 7 -2 0
BITMAP
FE
82
EE
28
28
28
38
ENDCHAR
STARTCHAR 0075
ENCODING 117
SWIDTH 375 0
DWIDTH 6 0
BBX 7 7 -2 0
BITMAP
EE
AA
AA
AA
BA
82
FE
ENDCHAR
STARTCHAR 0076
ENCODING 118
SWIDTH 375 0
DWIDTH 6 0
BBX 7 7 -2 0
BITMAP
EE
AA
AA
BA
D6
6C
38
ENDCHAR
STARTCHAR 0077
ENCODING 119
SWIDTH 375 0
DWIDTH 6 0
BBX 7 7 -2 0
BITMAP
FE
AA
AA
AA
AA
82
FE
ENDCHAR
STARTCHAR 0078
ENCODING 120
SWIDTH 375 0
DWIDTH 6 0
BBX 7 7 -2 0
BITMAP
EE
BA
D6
6C
D6
BA
EE
ENDCHAR
STARTCHAR 0079
ENCODING 121
SWIDTH 375 0
DWIDTH 6 0
BBX 7 7 -2 0
BITMAP
EE
BA
D6
6C
28
28
38
ENDCHAR
STARTCHAR 007A
ENCODING 122
SWIDTH 375 0
DWIDTH 6 0
BBX 7 7 -2 0
BITMAP
FE
82
FA
C6
BE
82
FE
ENDCHAR
STARTCHAR 007B
ENCODING 123
SWIDTH 250 0
DWIDTH 4 0
BBX 5 9 -2 -1
BITMAP
38
68
58
D0
A0
D0
58
68
38
ENDCHAR
STARTCHAR 007C
ENCODING 124
SWIDTH 125 0
DWIDTH 2 0
BBX 3 9 -2 -2
BITMAP
E0
A0
A0
A0
A0
A0
A0
A0
E0
ENDCHAR
STARTCHAR 007D
ENCODING 125
SWIDTH 250 0
DWIDTH 4 0
BBX 5 9 -2 -1
BITMAP
E0
B0
D0
58
28
58
D0
B0
E0
ENDCHAR
STARTCHAR 007E
ENCODING 126
SWIDTH 375 0
DWIDTH 6 0
BBX 7 4 -2 5
BITMAP
7E
CA
A6
FC
ENDCHAR
STARTCHAR 00A0
ENCODING 160
SWIDTH 312 0
DWIDTH 5 0
BBX 0 0 0 0
BITMAP
ENDCHAR
STARTCHAR 00A1
ENCODING 161
SWIDTH 125 0
DWIDTH 2 0
BBX 3 7 -2 -1
BITMAP
E0
A0
E0
A0
A0
A0
E0
ENDCHAR
STARTCHAR 00A8
ENCODING 168
SWIDTH 312 0
DWIDTH 5 0
BBX 5 3 -1 6
BITMAP
F8
A8
F8
ENDCHAR
STARTCHAR 00A9
ENCODING 169
SWIDTH 625 0
DWIDTH 10 0
BBX 10 10 -1 0
BITMAP
3F00
6180
DEC0
B140
AF40
AF40
B140
DEC0
6180
3F00
ENDCHAR
ENDFONT
